<svg id="Layer_1" data-name="Layer 1" xmlns="http://www.w3.org/2000/svg" viewBox="0 0 492.47 193.74"><defs><style>.cls-1{fill:#fff;}</style></defs><path class="cls-1" d="M75.89,271.6h59.55a35.24,35.24,0,0,1,20.65,6.87q9.75,6.87,9.75,16.64a7.5,7.5,0,0,1-3.47,6.2,12.72,12.72,0,0,1-7.7,2.55q-5.85,0-8-2t-4.15-7.37q-2-5.4-8.8-5.39H77.09c-2.73,0-4.09.65-4.09,2-.07.83.48,1.78,1.67,2.87l85,81q6.15,5.89,6.15,12.61,0,7.63-7.42,13.43a26.19,26.19,0,0,1-16.54,5.8H80.21a33.91,33.91,0,0,1-21.3-7q-9.06-7-9-15.31,0-9.57,12-9.57a12.65,12.65,0,0,1,7.89,2.5A7.24,7.24,0,0,1,73,383.33a5.48,5.48,0,0,0,2.52,4.58,10.49,10.49,0,0,0,6.33,1.83h56.9c2.45,0,3.67-.73,3.67-2.18.07-.69-.49-1.58-1.67-2.66l-84.89-81q-6-5.81-6-12.62,0-7.94,7.63-13.79A29.36,29.36,0,0,1,75.89,271.6Z" transform="translate(-49.86 -271.6)"/><path class="cls-1" d="M473.17,324.72v-4.38l-23.68-25.23V398.29a7.35,7.35,0,0,1-3.34,6,13.14,13.14,0,0,1-8.1,2.49,12.91,12.91,0,0,1-8.09-2.54,7.41,7.41,0,0,1-3.34-6V271.6h29.57l28.1,30.64,29-30.64h29V398.29a7.3,7.3,0,0,1-3.47,6,13.79,13.79,0,0,1-8.24,2.49,13,13,0,0,1-8-2.54q-3.4-2.55-3.41-6V295.52L496,319.94v4.78c0,2.3-1.13,4.31-3.4,6a14,14,0,0,1-16.13,0A7.43,7.43,0,0,1,473.17,324.72Z" transform="translate(-49.86 -271.6)"/><path class="cls-1" d="M288.8,398.08V366.64L335.4,278q3.54-6.42,11.14-6.43,8,0,11.41,6.41l46.28,88.63v31.44a7.58,7.58,0,0,1-3.34,6.21,14.23,14.23,0,0,1-16.23,0,7.57,7.57,0,0,1-3.34-6.2V370.22l-34.8-66.36L311.73,370v28.07a7.56,7.56,0,0,1-3.35,6.2,14.25,14.25,0,0,1-16.24,0A7.58,7.58,0,0,1,288.8,398.08Z" transform="translate(-49.86 -271.6)"/><path class="cls-1" d="M265.37,407H206.49a10.28,10.28,0,0,1-6.84-2.37,7.22,7.22,0,0,1,0-11.45,10.15,10.15,0,0,1,6.84-2.41h19.78V330.15H206.72a10.11,10.11,0,0,1-6.84-2.42,7.27,7.27,0,0,1-2.82-5.7,7.52,7.52,0,0,1,2.82-5.84,10,10,0,0,1,6.84-2.46h29.44a10,10,0,0,1,6.84,2.46,7.52,7.52,0,0,1,2.82,5.84v68.7h19.32a10.75,10.75,0,0,1,6.95,2.36,7.14,7.14,0,0,1,.06,11.5A10.34,10.34,0,0,1,265.37,407ZM226,271.6h10.12A10.28,10.28,0,0,1,243,274a7.26,7.26,0,0,1,2.82,5.75v6.95a7.52,7.52,0,0,1-2.82,5.85,10,10,0,0,1-6.84,2.46H225.81a10.06,10.06,0,0,1-7-2.51,7.06,7.06,0,0,1-2.7-5.6l.23-7.15A7.26,7.26,0,0,1,219.2,274,10.28,10.28,0,0,1,226,271.6Z" transform="translate(-49.86 -271.6)"/><path class="cls-1" d="M142.8,290.14" transform="translate(-49.86 -271.6)"/><path class="cls-1" d="M224.2,396.29v4.88c0,1.54-1,2.86-3,4a14.68,14.68,0,0,1-7.28,1.68H131a14.7,14.7,0,0,1-7.28-1.68c-2-1.12-3-2.44-3-4v-4.88c0-1.53,1-2.84,3-3.91a15.15,15.15,0,0,1,7.28-1.62h82.93a16,16,0,0,1,7.1,1.55Q224.2,393.85,224.2,396.29Z" transform="translate(-49.86 -271.6)"/><path class="cls-1" d="M304.72,396.29v4.88a6,6,0,0,1-1.4,4,4.29,4.29,0,0,1-3.4,1.68H261.16a4.28,4.28,0,0,1-3.4-1.68,6,6,0,0,1-1.4-4v-4.88a5.72,5.72,0,0,1,1.4-3.91,4.34,4.34,0,0,1,3.4-1.62h38.76a4.51,4.51,0,0,1,3.31,1.55A5.51,5.51,0,0,1,304.72,396.29Z" transform="translate(-49.86 -271.6)"/><path class="cls-1" d="M449.49,396.29v4.88a5.21,5.21,0,0,1-1.85,4,6.43,6.43,0,0,1-4.49,1.68H392a6.43,6.43,0,0,1-4.49-1.68,5.21,5.21,0,0,1-1.85-4v-4.88a5,5,0,0,1,1.85-3.91,6.57,6.57,0,0,1,4.49-1.62h51.14a6.92,6.92,0,0,1,4.38,1.55A4.84,4.84,0,0,1,449.49,396.29Z" transform="translate(-49.86 -271.6)"/><path class="cls-1" d="M64.54,453.4c0,2.22-.83,3.33-2.48,3.33H53.84q-2.46,0-2.46-3.33v-8.7h4.08v7.44h5V445l-8.18-10.36a4.61,4.61,0,0,1-.89-2.91v-8.12q0-3.36,2.46-3.36h8.22c1.65,0,2.48,1.11,2.48,3.32v8.16H60.45v-6.88h-5v6.6l8.19,10.31a4.62,4.62,0,0,1,.89,3Z" transform="translate(-49.86 -271.6)"/><path class="cls-1" d="M79.19,453.82c0,1.94-.74,2.91-2.21,2.91H69.82q-2.25,0-2.25-2.91V436.09q0-2.91,2.25-2.91H77c1.47,0,2.21,1,2.21,2.91Zm-3.91-1.52V437.63H71.5V452.3Z" transform="translate(-49.86 -271.6)"/><path class="cls-1" d="M93.46,453.82c0,1.94-.73,2.91-2.21,2.91H84.32q-2.25,0-2.25-2.91V436.09q0-2.91,2.25-2.91h6.93c1.48,0,2.21,1,2.21,2.91v5.6H89.57v-4.06H86V452.3h3.57v-4.5h3.89Z" transform="translate(-49.86 -271.6)"/><path class="cls-1" d="M100.39,429.8h-4v-5.51h4Zm0,26.93H96.43V433.18h3.93Z" transform="translate(-49.86 -271.6)"/><path class="cls-1" d="M114.68,456.73h-3.82v-.81l-2.72.56a15.65,15.65,0,0,1-2.71.35c-1.45,0-2.18-1-2.18-2.87v-8.49c0-1.94.75-2.92,2.25-2.92h5.39v-5.41h-3.82v3.36h-3.61v-4.41q0-2.91,2.25-2.91h6.75q2.22,0,2.22,2.91Zm-3.79-4.24v-6.32h-3.82v6.51Z" transform="translate(-49.86 -271.6)"/><path class="cls-1" d="M121.57,456.73h-3.92v-36.5h3.92Z" transform="translate(-49.86 -271.6)"/><path class="cls-1" d="M128.57,456.73h-3.93v-36.5h3.93Z" transform="translate(-49.86 -271.6)"/><path class="cls-1" d="M143.47,433.18l-4.41,23.25-1.7,8.91h-4.08l1.83-8.79-4.46-23.37h4.1l2.32,15.48,2.32-15.48Z" transform="translate(-49.86 -271.6)"/><path class="cls-1" d="M157.17,456.73h-4.09v-36.5h4.09Z" transform="translate(-49.86 -271.6)"/><path class="cls-1" d="M172.07,456.73h-4v-19.1l-3.75.1v19h-4V433.18h4V434c.93-.2,1.86-.4,2.78-.58a13.66,13.66,0,0,1,2.81-.38c1.45,0,2.18,1,2.18,2.87Z" transform="translate(-49.86 -271.6)"/><path class="cls-1" d="M182.54,456.73H178.1c-1.47,0-2.21-1-2.21-2.91V437.73H174v-4.55h1.89v-6.39h4v6.39h2.56v4.55h-2.56v14.46h2.67Z" transform="translate(-49.86 -271.6)"/><path class="cls-1" d="M196.14,453.82q0,2.91-2.25,2.91H187q-2.25,0-2.25-2.91V436.09q0-2.91,2.25-2.91h6.89q2.25,0,2.25,2.91v8.66l-1.09,1.46h-6.48v6.61h3.75V448.9h3.82Zm-3.82-11.08V437.1h-3.75v5.64Z" transform="translate(-49.86 -271.6)"/><path class="cls-1" d="M210.15,443h-4v-5.39l-3.15.1v19h-4V433.18h4V434l2.46-.61a11.26,11.26,0,0,1,2.47-.35c1.46,0,2.18,1,2.18,2.87Z" transform="translate(-49.86 -271.6)"/><path class="cls-1" d="M223.76,456.73h-3.82v-.81l-2.72.56a15.56,15.56,0,0,1-2.7.35c-1.46,0-2.18-1-2.18-2.87v-8.49c0-1.94.75-2.92,2.25-2.92H220v-5.41h-3.82v3.36h-3.61v-4.41q0-2.91,2.25-2.91h6.75c1.48,0,2.21,1,2.21,2.91ZM220,452.49v-6.32h-3.82v6.51Z" transform="translate(-49.86 -271.6)"/><path class="cls-1" d="M238,453.82q0,2.91-2.22,2.91h-6.92q-2.25,0-2.25-2.91V436.09q0-2.91,2.25-2.91h6.92q2.22,0,2.22,2.91v5.6h-3.89v-4.06h-3.58V452.3h3.58v-4.5H238Z" transform="translate(-49.86 -271.6)"/><path class="cls-1" d="M248.49,456.73h-4.43q-2.22,0-2.22-2.91V437.73H240v-4.55h1.88v-6.39h4v6.39h2.56v4.55h-2.56v14.46h2.67Z" transform="translate(-49.86 -271.6)"/><path class="cls-1" d="M254.77,429.8h-4v-5.51h4Zm0,26.93h-3.92V433.18h3.92Z" transform="translate(-49.86 -271.6)"/><path class="cls-1" d="M269.63,433.18l-4.5,23.6h-3.82l-4.5-23.6h4.1l2.32,15.48,2.32-15.48Z" transform="translate(-49.86 -271.6)"/><path class="cls-1" d="M283,453.82q0,2.91-2.25,2.91h-6.89q-2.25,0-2.25-2.91V436.09q0-2.91,2.25-2.91h6.89q2.25,0,2.25,2.91v8.66l-1.1,1.46h-6.47v6.61h3.75V448.9H283Zm-3.82-11.08V437.1h-3.75v5.64Z" transform="translate(-49.86 -271.6)"/><path class="cls-1" d="M307.3,456.73h-4l-.82-6.92h-5.12l-.82,6.92h-4v-.09l5.29-36.45h4.29Zm-5.44-11.61-2-16.47-2,16.47Z" transform="translate(-49.86 -271.6)"/><path class="cls-1" d="M321.11,456.73h-4v-.81l-2.78.6a13.85,13.85,0,0,1-2.79.35c-1.45,0-2.18-1-2.18-2.91V433.18h4V452.3l3.79-.11v-19h4Z" transform="translate(-49.86 -271.6)"/><path class="cls-1" d="M331.61,456.73h-4.43q-2.22,0-2.22-2.91V437.73h-1.88v-4.55H325v-6.39h4v6.39h2.56v4.55h-2.56v14.46h2.67Z" transform="translate(-49.86 -271.6)"/><path class="cls-1" d="M345.45,453.82q0,2.91-2.22,2.91h-7.15q-2.25,0-2.25-2.91V436.09q0-2.91,2.25-2.91h7.15q2.22,0,2.22,2.91Zm-3.91-1.52V437.63h-3.79V452.3Z" transform="translate(-49.86 -271.6)"/><path class="cls-1" d="M360.08,456.73h-4v-19.1l-3.75.1v19h-4V433.18h4V434c.93-.2,1.85-.4,2.77-.58a13.75,13.75,0,0,1,2.81-.38c1.46,0,2.18,1,2.18,2.87Z" transform="translate(-49.86 -271.6)"/><path class="cls-1" d="M374.57,453.82q0,2.91-2.22,2.91H365.2q-2.25,0-2.25-2.91V436.09q0-2.91,2.25-2.91h7.15q2.22,0,2.22,2.91Zm-3.91-1.52V437.63h-3.79V452.3Z" transform="translate(-49.86 -271.6)"/><path class="cls-1" d="M396.88,456.73h-4v-19.1l-3.75.1v19h-4v-19.1l-3.75.1v19h-4V433.18h4V434l2.77-.61a14.7,14.7,0,0,1,2.81-.35,1.69,1.69,0,0,1,1.78,1.05c1-.2,2-.41,2.93-.63a15.27,15.27,0,0,1,3-.42c1.45,0,2.18,1,2.18,2.87Z" transform="translate(-49.86 -271.6)"/><path class="cls-1" d="M411.36,453.82c0,1.94-.74,2.91-2.21,2.91H402q-2.25,0-2.25-2.91V436.09q0-2.91,2.25-2.91h7.16c1.47,0,2.21,1,2.21,2.91Zm-3.91-1.52V437.63h-3.78V452.3Z" transform="translate(-49.86 -271.6)"/><path class="cls-1" d="M426,456.73h-4v-.81l-2.78.6a13.68,13.68,0,0,1-2.79.35c-1.45,0-2.18-1-2.18-2.91V433.18h4V452.3l3.79-.11v-19h4Z" transform="translate(-49.86 -271.6)"/><path class="cls-1" d="M439.94,453.82c0,1.94-.74,2.91-2.21,2.91H431q-2.22,0-2.22-2.91v-5.06h3.82v4h3.51V449L430,444.16a3.1,3.1,0,0,1-1.21-2.56v-5.51q0-2.91,2.25-2.91h6.65q2.22,0,2.22,2.91v4.74h-3.79v-3.64h-3.51v3.4l6.11,4.79a3.08,3.08,0,0,1,1.22,2.61Z" transform="translate(-49.86 -271.6)"/><path class="cls-1" d="M466.81,456.73h-3.92v-18c0-1,.08-2.27.24-4l-3.52,18.64h-2.08L454,434.76c.16,1.73.24,3.05.24,4v18h-3.92v-36.5h3.85l4.29,20.18a11.27,11.27,0,0,1,.11,1.65c0-.39,0-.94.1-1.65l4.3-20.18h3.85Z" transform="translate(-49.86 -271.6)"/><path class="cls-1" d="M481.49,453.82q0,2.91-2.22,2.91h-7.15q-2.25,0-2.25-2.91V436.09q0-2.91,2.25-2.91h7.15q2.22,0,2.22,2.91Zm-3.91-1.52V437.63h-3.79V452.3Z" transform="translate(-49.86 -271.6)"/><path class="cls-1" d="M496.12,452a5.47,5.47,0,0,1-1,3.47,3.21,3.21,0,0,1-2.65,1.26h-8.12v-36.5h4V434l2.79-.58a14.41,14.41,0,0,1,2.79-.38c1.46,0,2.18,1,2.18,2.87Zm-4-1.47v-12.9l-3.75.1V452.3h2.48C491.69,452.3,492.11,451.71,492.11,450.53Z" transform="translate(-49.86 -271.6)"/><path class="cls-1" d="M503.05,429.8h-4v-5.51h4Zm0,26.93h-3.93V433.18H503Z" transform="translate(-49.86 -271.6)"/><path class="cls-1" d="M510,456.73h-3.92v-36.5H510Z" transform="translate(-49.86 -271.6)"/><path class="cls-1" d="M517,429.8h-4v-5.51h4Zm0,26.93h-3.93V433.18H517Z" transform="translate(-49.86 -271.6)"/><path class="cls-1" d="M527.58,456.73h-4.43c-1.48,0-2.21-1-2.21-2.91V437.73h-1.89v-4.55h1.89v-6.39h4v6.39h2.57v4.55h-2.57v14.46h2.67Z" transform="translate(-49.86 -271.6)"/><path class="cls-1" d="M541.73,433.18l-4.41,23.25-1.69,8.91h-4.09l1.84-8.79-4.47-23.37H533l2.32,15.48,2.32-15.48Z" transform="translate(-49.86 -271.6)"/></svg>